# xmcd CD database file
#
# Track frame offsets:
#	150
#	19912
#	37725
#
# Disc length: 763 seconds
#
# Revision: 0
# Processed by: cddbd v1.5PL3 Copyright (c) Steve Scherf et al.
# Submitted via: CDex 1.51
#
DISCID=1702f903
DTITLE=千聖 - falling over you
DYEAR=1996
DGENRE=JPop
TTITLE0=falling over you
TTITLE1=2000 MILES
TTITLE2=falling over you (voiceless version)
EXTD=YEAR: 1996
EXTT0=
EXTT1=
EXTT2=
PLAYORDER=
